Coordinates
version=1
nRows=40
nColumns=30
inDegrees=yes

Units are S.I. units (second, meters, Newtons, ...)
Angles are in degrees.

endheader
time	floatyaw	floatroll	floatpitch	floatx	floaty	floatz	pro_sup_l	deviation_l	flexion_l	cmc_flexion_l	cmc_abduction_l	mp_flexion_l	ip_flexion_l	2mcp_flexion_l	2mcp_abduction_l	2pm_flexion_l	2md_flexion_l	3mcp_flexion_l	3mcp_abduction_l	3pm_flexion_l	3md_flexion_l	4mcp_flexion_l	4mcp_abduction_l	4pm_flexion_l	4md_flexion_l	5mcp_flexion_l	5mcp_abduction_l	5pm_flexion_l	5md_flexion_l
0.005000	-4.245860	-0.556116	99.572370	0.058707	-0.152735	0.072519	84.393173	10.537757	-2.806234	14.078768	35.103719	-26.839055	-49.484827	59.585800	6.421872	53.745600	45.889063	53.822623	3.928867	72.943834	51.861224	56.415384	-5.902852	90.855790	64.542195	68.388962	-4.089440	88.727322	44.499512
0.015000	-4.245860	-0.556116	99.572370	0.058822	-0.151796	0.071999	82.896245	10.549269	-3.797732	14.136308	35.072206	-27.081003	-49.932209	59.944902	6.356321	53.720192	46.248533	54.388133	3.968921	72.984469	52.216585	56.872633	-5.905567	91.197677	64.805631	68.801216	-4.137660	89.403004	44.654253
0.025000	-4.245860	-0.556116	99.572370	0.058941	-0.150105	0.071733	81.856554	10.629206	-4.894990	14.310554	34.870591	-27.400996	-50.434068	60.376813	6.295204	53.669956	46.467928	54.911807	4.008768	73.070244	52.529839	57.259454	-5.909229	91.554997	65.069721	69.154854	-4.187452	90.098066	44.782194
0.035000	-4.245860	-0.556116	99.572370	0.059075	-0.147814	0.071707	81.397550	10.798971	-5.959999	14.606708	34.489988	-27.782192	-50.937094	60.906205	6.252166	53.532166	46.520338	55.414768	4.044498	73.124239	52.747979	57.602701	-5.914264	91.845610	65.277120	69.465351	-4.237994	90.710072	44.867603
0.045000	-4.245860	-0.556116	99.572370	0.059228	-0.145282	0.071823	81.468028	11.061261	-6.851668	15.001133	33.950086	-28.172822	-51.352595	61.505551	6.241702	53.290212	46.394214	55.899731	4.075756	73.073530	52.827294	57.922414	-5.920811	91.991595	65.360352	69.730872	-4.291111	91.128102	44.898625
0.055000	-4.245860	-0.556116	99.572370	0.059397	-0.142971	0.071935	81.854007	11.394224	-7.479626	15.447737	33.299624	-28.510952	-51.600991	62.110839	6.270409	52.976077	46.112603	56.353557	4.103432	72.886363	52.759734	58.231001	-5.928826	91.959902	65.280325	69.946003	-4.346990	91.284434	44.873797
0.065000	-4.245860	-0.556116	99.572370	0.059564	-0.141288	0.071910	82.267936	11.757610	-7.832626	15.893727	32.602023	-28.752938	-51.652033	62.644449	6.331300	52.654426	45.738434	56.753198	4.127953	72.587211	52.583475	58.528116	-5.937912	91.778450	65.050987	70.107528	-4.402861	91.187602	44.805220
0.075000	-4.245860	-0.556116	99.572370	0.059704	-0.140436	0.071680	82.473932	12.108052	-7.970239	16.299745	31.910367	-28.891091	-51.538823	63.039650	6.405752	52.397674	45.359054	57.073373	4.148863	72.243093	52.369286	58.797577	-5.947260	91.520050	64.736068	70.212024	-4.454900	90.918555	44.715428
0.085000	-4.245860	-0.556116	99.572370	0.059794	-0.140360	0.071267	82.379834	12.414736	-7.987230	16.655163	31.243553	-28.952892	-51.339102	63.260181	6.472112	52.261715	45.055448	57.294429	4.165466	71.930868	52.189173	59.012366	-5.955876	91.266129	64.419611	70.252554	-4.501094	90.592344	44.629381
0.095000	-4.245860	-0.556116	99.572370	0.059821	-0.140805	0.070762	82.045793	12.667155	-7.972323	16.979195	30.577121	-28.984082	-51.136486	63.308929	6.515252	52.268958	44.872358	57.408779	4.177736	71.705478	52.085532	59.147157	-5.962896	91.073251	64.167926	70.221194	-4.542482	90.308557	44.566329
0.105000	-4.245860	-0.556116	99.572370	0.059794	-0.141448	0.070276	81.615278	12.872522	-7.980247	17.305959	29.855776	-29.025430	-50.984445	63.222712	6.531294	52.402929	44.806346	57.423642	4.186753	71.585271	52.057900	59.191040	-5.967778	90.959386	64.004510	70.116466	-4.582030	90.117957	44.535000
0.115000	-4.245860	-0.556116	99.572370	0.059736	-0.142036	0.069886	81.222597	13.046906	-8.024447	17.662399	29.022974	-29.095163	-50.891442	63.055623	6.525849	52.616068	44.817440	57.358607	4.194420	71.556830	52.071804	59.152429	-5.970304	90.910992	63.909148	69.948568	-4.622476	90.018504	44.531997
0.125000	-4.245860	-0.556116	99.572370	0.059674	-0.142446	0.069613	80.934726	13.206561	-8.087345	18.052613	28.052903	-29.184985	-50.830981	62.858899	6.508499	52.847749	44.854707	57.239129	4.202682	71.590006	52.081056	59.053808	-5.970546	90.900154	63.836870	69.736938	-4.664818	89.974581	44.542405
0.135000	-4.245860	-0.556116	99.572370	0.059629	-0.142679	0.069424	80.749160	13.363361	-8.139685	18.456552	26.968058	-29.269659	-50.765832	62.666462	6.487604	53.045162	44.879355	57.089300	4.212764	71.652070	52.050046	58.920649	-5.968855	90.899954	63.743095	69.501868	-4.708171	89.943153	44.543773
0.145000	-4.245860	-0.556116	99.572370	0.059604	-0.142797	0.069266	80.628626	13.524002	-8.159226	18.840891	25.833321	-29.322935	-50.670163	62.490869	6.467932	53.178773	44.874475	56.926998	4.224852	71.716040	51.966247	58.771646	-5.965845	90.892772	63.602072	69.256990	-4.750557	89.892930	44.514824
0.155000	-4.245860	-0.556116	99.572370	0.059590	-0.142873	0.069095	80.537727	13.690523	-8.141017	19.173720	24.730588	-29.330690	-50.538635	62.328073	6.451015	53.247331	44.841486	56.762521	4.238274	71.764419	51.840249	58.615130	-5.962274	90.872310	63.412861	69.007909	-4.789849	89.811361	44.446488
0.165000	-4.245860	-0.556116	99.572370	0.059572	-0.142955	0.068889	80.458969	13.860608	-8.096322	19.435405	23.727970	-29.295558	-50.381810	62.165848	6.436658	53.272415	44.790622	56.599906	4.251989	71.790708	51.696819	58.451736	-5.958814	90.842015	63.194514	68.756509	-4.824373	89.701950	44.348790
0.175000	-4.245860	-0.556116	99.572370	0.059532	-0.143062	0.068654	80.388169	14.027947	-8.043377	19.622607	22.858658	-29.232849	-50.215043	61.991384	6.424082	53.286445	44.733009	56.439410	4.265077	71.798960	51.563260	58.279908	-5.955816	90.811389	62.975854	68.506231	-4.853181	89.577310	44.247931
0.185000	-4.245860	-0.556116	99.572370	0.059464	-0.143195	0.068408	80.323022	14.183564	-7.996905	19.746471	22.117255	-29.161690	-50.049533	61.796147	6.412300	53.319608	44.677443	56.280015	4.277050	71.800395	51.460326	58.100336	-5.953194	90.790905	62.784859	68.264022	-4.876165	89.452142	44.173989
0.195000	-4.245860	-0.556116	99.572370	0.059367	-0.143345	0.068175	80.257580	14.318295	-7.962558	19.827319	21.471727	-29.096668	-49.889951	61.577989	6.400254	53.390360	44.630331	56.121258	4.287911	71.807461	51.397934	57.917177	-5.950565	90.786900	62.640471	68.038040	-4.894052	89.337819	44.146387
0.205000	-4.245860	-0.556116	99.572370	0.059250	-0.143503	0.067970	80.185544	14.425607	-7.938106	19.887838	20.882545	-29.043785	-49.737159	61.340911	6.387240	53.502089	44.595831	55.963899	4.297993	71.828025	51.375221	57.736180	-5.947566	90.798856	62.547937	67.833314	-4.908156	89.239014	44.165844
0.215000	-4.245860	-0.556116	99.572370	0.059122	-0.143659	0.067802	80.106731	14.503505	-7.918577	19.946547	20.319821	-29.001528	-49.591571	61.093082	6.373514	53.645770	44.574816	55.809303	4.307677	71.862845	51.383287	57.561537	-5.944145	90.820676	62.498395	67.648665	-4.919931	89.153092	44.216619
0.225000	-4.245860	-0.556116	99.572370	0.058992	-0.143806	0.067672	80.029573	14.554654	-7.900990	20.013476	19.772489	-28.964848	-49.453994	60.844077	6.360482	53.806307	44.563609	55.658212	4.317159	71.907388	51.408934	57.393845	-5.940626	90.845057	62.472848	67.476900	-4.930546	89.072881	44.275823
0.235000	-4.245860	-0.556116	99.572370	0.058865	-0.143935	0.067578	79.967303	14.584943	-7.885959	20.089353	19.247554	-28.928956	-49.324271	60.602488	6.350171	53.969333	44.554298	55.510132	4.326399	71.956079	51.438209	57.230576	-5.937496	90.867955	62.449266	67.308129	-4.940719	88.991701	44.323221
0.245000	-4.245860	-0.556116	99.572370	0.058744	-0.144044	0.067514	79.931090	14.601593	-7.876428	20.168224	18.760809	-28.891173	-49.200316	60.374617	6.344212	54.125544	44.537611	55.364142	4.335262	72.005568	51.459353	57.068693	-5.935084	90.890120	62.410080	67.134319	-4.950863	88.907581	44.346656
0.255000	-4.245860	-0.556116	99.572370	0.058631	-0.144133	0.067473	79.925088	14.611766	-7.875399	20.242036	18.323878	-28.851078	-49.079487	60.164157	6.342968	54.271172	44.507435	55.220699	4.343697	72.054871	51.465036	56.907576	-5.933355	90.914833	62.347121	66.952766	-4.961348	88.823746	44.342460
0.265000	-4.245860	-0.556116	99.572370	0.058529	-0.144207	0.067447	79.945819	14.621716	-7.884234	20.305159	17.934852	-28.810060	-48.961531	59.972335	6.345315	54.405583	44.464376	55.082944	4.351818	72.103084	51.453416	56.750230	-5.931956	90.943797	62.262204	66.766806	-4.972654	88.745275	44.313242
0.275000	-4.245860	-0.556116	99.572370	0.058438	-0.144271	0.067426	79.984871	14.635982	-7.902004	20.356955	17.578094	-28.770827	-48.850418	59.797978	6.349177	54.528640	44.415964	54.956156	4.359858	72.147358	51.427493	56.601843	-5.930472	90.974543	62.163773	66.583495	-4.985355	88.674885	44.265566
0.285000	-4.245860	-0.556116	99.572370	0.058358	-0.144330	0.067405	80.032432	14.656493	-7.925620	20.401344	17.232811	-28.736544	-48.752925	59.637428	6.352474	54.639990	44.373297	54.845258	4.368064	72.183383	51.392992	56.466604	-5.928686	91.001461	62.061942	66.409635	-4.999954	88.611255	44.208228
0.295000	-4.245860	-0.556116	99.572370	0.058288	-0.144386	0.067379	80.080071	14.682158	-7.950535	20.443617	16.884201	-28.709183	-48.674122	59.484862	6.353988	54.740110	44.346301	54.751836	4.376576	72.208157	51.355890	56.344898	-5.926669	91.019624	61.964671	66.248378	-5.016650	88.550752	44.150724
0.305000	-4.245860	-0.556116	99.572370	0.058224	-0.144440	0.067350	80.122423	14.709594	-7.971930	20.486341	16.529954	-28.687563	-48.612426	59.333672	6.353717	54.831340	44.340155	54.672590	4.385362	72.222729	51.320779	56.232789	-5.924694	91.028420	61.876361	66.098202	-5.035099	88.490610	44.101589
0.315000	-4.245860	-0.556116	99.572370	0.058160	-0.144489	0.067321	80.157829	14.734806	-7.986213	20.527088	16.179067	-28.666606	-48.558173	59.178775	6.352619	54.917618	44.354212	54.600331	4.394211	72.232574	51.290566	56.124104	-5.923063	91.032428	61.798405	65.954648	-5.054300	88.431016	44.066636
0.325000	-4.245860	-0.556116	99.572370	0.058094	-0.144533	0.067295	80.187814	14.754941	-7.992265	20.559861	15.845363	-28.639234	-48.498092	59.018754	6.351947	55.003170	44.383282	54.527148	4.402833	72.245118	51.267205	56.013933	-5.921932	91.039077	61.730459	65.813635	-5.072809	88.375044	44.047040
0.335000	-4.245860	-0.556116	99.572370	0.058029	-0.144570	0.067274	80.215492	14.769195	-7.991878	20.579544	15.540782	-28.600490	-48.423762	58.856729	6.352605	55.090945	44.420353	54.448218	4.411007	72.265866	51.252574	55.901677	-5.921215	91.054575	61.671531	65.674405	-5.089255	88.326896	44.037704
0.345000	-4.245860	-0.556116	99.572370	0.057967	-0.144603	0.067260	80.243657	14.778646	-7.989124	20.586315	15.272207	-28.551348	-48.338146	58.699567	6.354864	55.181303	44.459328	54.364296	4.418667	72.295480	51.248399	55.791996	-5.920591	91.080344	61.620435	65.540486	-5.102904	88.289336	44.027700
0.355000	-4.245860	-0.556116	99.572370	0.057912	-0.144634	0.067253	80.273476	14.785331	-7.988864	20.586726	15.042178	-28.499347	-48.254783	58.555735	6.358464	55.271521	44.496232	54.281353	4.425868	72.329676	51.254854	55.692867	-5.919679	91.112022	61.575536	65.418226	-5.113859	88.261424	44.004538
0.365000	-4.245860	-0.556116	99.572370	0.057868	-0.144666	0.067249	80.304211	14.791087	-7.994840	20.590521	14.851288	-28.455251	-48.189730	58.432297	6.362885	55.356934	44.528382	54.207306	4.432659	72.362120	51.268769	55.611343	-5.918288	91.141792	61.534183	65.313637	-5.122796	88.238017	43.961181
0.375000	-4.245860	-0.556116	99.572370	0.057833	-0.144700	0.067249	80.333722	14.796644	-8.007967	20.605206	14.699673	-28.427610	-48.152001	58.332008	6.367562	55.433482	44.552894	54.147547	4.438982	72.388403	51.283422	55.549217	-5.916603	91.162790	61.492755	65.229058	-5.130466	88.212021	43.901182
0.385000	-4.245860	-0.556116	99.572370	0.057806	-0.144734	0.067250	80.359299	14.801386	-8.025494	20.631802	14.586411	-28.418329	-48.138988	58.251847	6.371984	55.499854	44.566650	54.101901	4.444692	72.408266	51.290971	55.501306	-5.915140	91.172767	61.448011	65.161301	-5.137358	88.178520	43.837428
0.395000	-4.245860	-0.556116	99.572370	0.057780	-0.144767	0.067251	80.378712	14.803998	-8.041673	20.664086	14.507346	-28.421492	-48.138776	58.183989	6.375744	55.557489	44.568309	54.064724	4.449694	72.424721	51.286378	55.457574	-5.914470	91.174721	61.399125	65.102358	-5.143677	88.138052	43.784721
